<mxfile host="app.diagrams.net" modified="2022-10-29T16:30:37.777Z" agent="5.0 (Windows NT 10.0; Win64; x64) AppleWebKit/537.36 (KHTML, like Gecko) Chrome/106.0.0.0 Safari/537.36" etag="OvmAOvyFsCkS7NBxDzGb" version="20.5.1" type="github">
  <diagram id="BzsRsrqjs1NMDmfFUNy9" name="第 1 页">
    <mxGraphModel dx="1209" dy="717" grid="1" gridSize="10" guides="1" tooltips="1" connect="1" arrows="1" fold="1" page="1" pageScale="1" pageWidth="827" pageHeight="1169" math="0" shadow="0">
      <root>
        <mxCell id="0" />
        <mxCell id="1" parent="0" />
        <mxCell id="Hrk_J9U5QhzSNQlvTTR2-6" style="edgeStyle=orthogonalEdgeStyle;rounded=0;orthogonalLoop=1;jettySize=auto;html=1;exitX=0.5;exitY=1;exitDx=0;exitDy=0;entryX=0.5;entryY=0;entryDx=0;entryDy=0;fontFamily=Times New Roman;" edge="1" parent="1" source="Hrk_J9U5QhzSNQlvTTR2-1" target="Hrk_J9U5QhzSNQlvTTR2-4">
          <mxGeometry relative="1" as="geometry" />
        </mxCell>
        <mxCell id="Hrk_J9U5QhzSNQlvTTR2-1" value="&lt;font style=&quot;font-size: 15px;&quot; face=&quot;Times New Roman&quot;&gt;微博文本&lt;/font&gt;" style="shape=parallelogram;perimeter=parallelogramPerimeter;whiteSpace=wrap;html=1;fixedSize=1;fillColor=#d5e8d4;strokeColor=#82b366;" vertex="1" parent="1">
          <mxGeometry x="140" y="140" width="120" height="60" as="geometry" />
        </mxCell>
        <mxCell id="Hrk_J9U5QhzSNQlvTTR2-7" style="edgeStyle=orthogonalEdgeStyle;rounded=0;orthogonalLoop=1;jettySize=auto;html=1;exitX=0.5;exitY=1;exitDx=0;exitDy=0;entryX=0.5;entryY=0;entryDx=0;entryDy=0;fontFamily=Times New Roman;" edge="1" parent="1" source="Hrk_J9U5QhzSNQlvTTR2-4" target="Hrk_J9U5QhzSNQlvTTR2-5">
          <mxGeometry relative="1" as="geometry" />
        </mxCell>
        <mxCell id="Hrk_J9U5QhzSNQlvTTR2-4" value="&lt;font style=&quot;font-size: 15px;&quot;&gt;句子分割&lt;/font&gt;" style="rounded=1;whiteSpace=wrap;html=1;fontFamily=Times New Roman;fillColor=#dae8fc;strokeColor=#6c8ebf;" vertex="1" parent="1">
          <mxGeometry x="145" y="240" width="110" height="60" as="geometry" />
        </mxCell>
        <mxCell id="Hrk_J9U5QhzSNQlvTTR2-11" style="edgeStyle=orthogonalEdgeStyle;rounded=0;orthogonalLoop=1;jettySize=auto;html=1;exitX=1;exitY=0.5;exitDx=0;exitDy=0;entryX=0;entryY=0.5;entryDx=0;entryDy=0;fontFamily=Times New Roman;" edge="1" parent="1" source="Hrk_J9U5QhzSNQlvTTR2-5" target="Hrk_J9U5QhzSNQlvTTR2-9">
          <mxGeometry relative="1" as="geometry">
            <Array as="points">
              <mxPoint x="320" y="375" />
              <mxPoint x="320" y="375" />
            </Array>
          </mxGeometry>
        </mxCell>
        <mxCell id="Hrk_J9U5QhzSNQlvTTR2-5" value="&lt;font style=&quot;font-size: 15px;&quot;&gt;分词预训练模型&lt;br&gt;&lt;span style=&quot;color: rgb(106, 135, 89); font-family: WordVisi_MSFontService, Consolas, Consolas_EmbeddedFont, Consolas_MSFontService, monospace; font-variant-ligatures: none; text-align: justify; -webkit-text-fill-color: rgb(106, 135, 89); -webkit-text-stroke-color: rgb(106, 135, 89); caret-color: rgb(106, 135, 89);&quot;&gt;FINE_ELECTRA_SMALL_ZH&lt;/span&gt;&lt;/font&gt;" style="rounded=1;whiteSpace=wrap;html=1;fontFamily=Times New Roman;fillColor=#ffe6cc;strokeColor=#d79b00;" vertex="1" parent="1">
          <mxGeometry x="90" y="350" width="220" height="50" as="geometry" />
        </mxCell>
        <mxCell id="Hrk_J9U5QhzSNQlvTTR2-20" style="edgeStyle=orthogonalEdgeStyle;rounded=0;orthogonalLoop=1;jettySize=auto;html=1;exitX=0.5;exitY=0;exitDx=0;exitDy=0;entryX=0.5;entryY=1;entryDx=0;entryDy=0;fontFamily=Times New Roman;startArrow=none;" edge="1" parent="1" source="Hrk_J9U5QhzSNQlvTTR2-26" target="Hrk_J9U5QhzSNQlvTTR2-10">
          <mxGeometry relative="1" as="geometry" />
        </mxCell>
        <mxCell id="Hrk_J9U5QhzSNQlvTTR2-9" value="&lt;font style=&quot;font-size: 15px;&quot;&gt;词性标注预训练模型&lt;br&gt;&lt;span style=&quot;color: rgb(106, 135, 89); font-family: WordVisi_MSFontService, Consolas, Consolas_EmbeddedFont, Consolas_MSFontService, monospace; font-variant-ligatures: none; text-align: justify; -webkit-text-fill-color: rgb(106, 135, 89); -webkit-text-stroke-color: rgb(106, 135, 89); caret-color: rgb(106, 135, 89);&quot;&gt;CTB9_POS_ELECTRA_SMALL&lt;/span&gt;&lt;/font&gt;" style="rounded=1;whiteSpace=wrap;html=1;fontFamily=Times New Roman;fillColor=#ffe6cc;strokeColor=#d79b00;" vertex="1" parent="1">
          <mxGeometry x="515" y="350" width="230" height="50" as="geometry" />
        </mxCell>
        <mxCell id="Hrk_J9U5QhzSNQlvTTR2-28" style="edgeStyle=orthogonalEdgeStyle;rounded=0;orthogonalLoop=1;jettySize=auto;html=1;exitX=0;exitY=0.5;exitDx=0;exitDy=0;fontFamily=Times New Roman;" edge="1" parent="1" source="Hrk_J9U5QhzSNQlvTTR2-10" target="Hrk_J9U5QhzSNQlvTTR2-19">
          <mxGeometry relative="1" as="geometry" />
        </mxCell>
        <mxCell id="Hrk_J9U5QhzSNQlvTTR2-10" value="&lt;font style=&quot;font-size: 15px;&quot;&gt;命名实体识别预训练模型&lt;br&gt;&lt;/font&gt;&lt;span style=&quot;color: rgb(106, 135, 89); font-family: WordVisi_MSFontService, Consolas, Consolas_EmbeddedFont, Consolas_MSFontService, monospace; font-variant-ligatures: none; text-align: justify; -webkit-text-fill-color: rgb(106, 135, 89); -webkit-text-stroke-color: rgb(106, 135, 89); caret-color: rgb(106, 135, 89); font-size: 15px;&quot;&gt;&lt;font style=&quot;font-size: 15px;&quot;&gt;MSRA_NER_ELECTRA_SMALL_ZH&lt;/font&gt;&lt;br&gt;&lt;/span&gt;" style="rounded=1;whiteSpace=wrap;html=1;fontFamily=Times New Roman;fillColor=#ffe6cc;strokeColor=#d79b00;" vertex="1" parent="1">
          <mxGeometry x="510" y="150" width="240" height="50" as="geometry" />
        </mxCell>
        <mxCell id="Hrk_J9U5QhzSNQlvTTR2-19" value="&lt;font style=&quot;font-size: 15px;&quot; face=&quot;Times New Roman&quot;&gt;&lt;b&gt;ner&lt;/b&gt;&lt;/font&gt;" style="shape=parallelogram;perimeter=parallelogramPerimeter;whiteSpace=wrap;html=1;fixedSize=1;fillColor=#d5e8d4;strokeColor=#82b366;" vertex="1" parent="1">
          <mxGeometry x="340" y="145" width="120" height="60" as="geometry" />
        </mxCell>
        <mxCell id="Hrk_J9U5QhzSNQlvTTR2-25" value="&lt;font style=&quot;font-size: 15px;&quot; face=&quot;Times New Roman&quot;&gt;&lt;b&gt;tok&lt;/b&gt;&lt;/font&gt;" style="shape=parallelogram;perimeter=parallelogramPerimeter;whiteSpace=wrap;html=1;fixedSize=1;fillColor=#d5e8d4;strokeColor=#82b366;" vertex="1" parent="1">
          <mxGeometry x="340" y="350" width="120" height="60" as="geometry" />
        </mxCell>
        <mxCell id="Hrk_J9U5QhzSNQlvTTR2-26" value="&lt;font size=&quot;1&quot; face=&quot;Times New Roman&quot;&gt;&lt;b style=&quot;font-size: 15px;&quot;&gt;pos&lt;/b&gt;&lt;/font&gt;" style="shape=parallelogram;perimeter=parallelogramPerimeter;whiteSpace=wrap;html=1;fixedSize=1;fillColor=#d5e8d4;strokeColor=#82b366;" vertex="1" parent="1">
          <mxGeometry x="570" y="240" width="120" height="60" as="geometry" />
        </mxCell>
        <mxCell id="Hrk_J9U5QhzSNQlvTTR2-27" value="" style="edgeStyle=orthogonalEdgeStyle;rounded=0;orthogonalLoop=1;jettySize=auto;html=1;exitX=0.5;exitY=0;exitDx=0;exitDy=0;entryX=0.5;entryY=1;entryDx=0;entryDy=0;fontFamily=Times New Roman;endArrow=none;" edge="1" parent="1" source="Hrk_J9U5QhzSNQlvTTR2-9" target="Hrk_J9U5QhzSNQlvTTR2-26">
          <mxGeometry relative="1" as="geometry">
            <mxPoint x="640" y="350" as="sourcePoint" />
            <mxPoint x="640" y="240" as="targetPoint" />
          </mxGeometry>
        </mxCell>
      </root>
    </mxGraphModel>
  </diagram>
</mxfile>
